# This file uses centimeters as units for non-parametric coordinates.

mtllib mirror_frame.mtl
g default
v -14.932425 -19.648619 4.360711
v 14.932425 -19.648619 4.360711
v -14.932425 19.648619 4.360711
v 14.932425 19.648619 4.360711
v -14.932425 19.648619 2.662171
v 14.932425 19.648619 2.662171
v -14.932425 -19.648619 2.662171
v 14.932425 -19.648619 2.662171
v -8.942864 -13.664687 4.055929
v 8.942864 -13.664687 4.055929
v -8.942864 -13.664687 3.099733
v 8.942864 -13.664687 3.099733
v -11.034314 15.736123 4.360711
v 11.034314 15.736123 4.360711
v 11.034314 -15.754175 4.360711
v -11.034314 -15.754175 4.360711
v -10.042292 14.588084 4.055929
v 10.042292 14.588084 4.055929
v 10.042292 -14.763084 4.055929
v -10.042292 -14.763084 4.055929
v -12.333685 17.040287 5.201048
v 12.333685 17.040287 5.201048
v 12.333685 -17.052320 5.201048
v -12.333685 -17.052320 5.201048
v -13.633055 18.344456 5.201048
v 13.633055 18.344456 5.201048
v 13.633055 -18.350471 5.201048
v -13.633055 -18.350471 5.201048
v 10.042183 14.587611 4.055929
v 0.515625 13.393000 4.055929
v 3.244794 12.926834 4.055929
v 5.195968 11.780466 4.055929
v 7.072419 9.956775 4.055929
v 7.962667 8.321212 4.055929
v 8.536918 6.580818 4.055929
v 8.942864 5.025984 4.055929
v 0.515625 13.393000 3.099733
v 8.942864 5.025984 3.099733
v 8.536917 6.580818 3.099733
v 7.962667 8.321212 3.099733
v 7.072419 9.956775 3.099733
v 5.195968 11.780466 3.099733
v 3.244794 12.926831 3.099733
v -10.042182 14.587612 4.055929
v -8.942864 5.025985 4.055929
v -8.536918 6.580817 4.055929
v -7.962667 8.321213 4.055929
v -7.072419 9.956775 4.055929
v -5.195968 11.780466 4.055929
v -3.244794 12.926831 4.055929
v -0.515625 13.393000 4.055929
v -8.942864 5.025984 3.099733
v -0.515625 13.393000 3.099733
v -3.244794 12.926831 3.099733
v -5.195968 11.780466 3.099733
v -7.072419 9.956775 3.099733
v -7.962667 8.321212 3.099733
v -8.536918 6.580817 3.099733
vt 0.872425 0.990050
vt 0.127575 0.990050
vt 0.127575 0.990050
vt 0.872425 0.990050
vt 0.872425 0.990050
vt 0.127575 0.990050
vt 0.127575 0.009950
vt 0.872425 0.009950
vt 0.872425 0.009950
vt 0.127575 0.009950
vt 0.127575 0.009950
vt 0.872425 0.009950
vt 0.127575 0.009950
vt 0.127575 0.009950
vt 0.127575 0.990050
vt 0.127575 0.990050
vt 0.872425 0.009950
vt 0.872425 0.009950
vt 0.872425 0.990050
vt 0.872425 0.990050
vt 0.127575 0.009950
vt 0.872425 0.009950
vt 0.840018 0.042327
vt 0.159982 0.042327
vt 0.872425 0.009950
vt 0.872425 0.990050
vt 0.840018 0.957523
vt 0.840018 0.042327
vt 0.872425 0.990050
vt 0.127575 0.990050
vt 0.159982 0.957523
vt 0.840018 0.957523
vt 0.127575 0.990050
vt 0.127575 0.009950
vt 0.159982 0.042327
vt 0.159982 0.957523
vt 0.723041 0.159193
vt 0.276959 0.159193
vt 0.276959 0.159193
vt 0.723041 0.159193
vt 0.276959 0.159193
vt 0.276959 0.625351
vt 0.276959 0.625351
vt 0.276959 0.159193
vt 0.487140 0.834030
vt 0.487140 0.834030
vt 0.512860 0.834030
vt 0.512860 0.834030
vt 0.723041 0.625351
vt 0.723041 0.625351
vt 0.723041 0.159193
vt 0.723041 0.159193
vt 0.775204 0.892470
vt 0.224796 0.892470
vt 0.249541 0.863825
vt 0.750459 0.863825
vt 0.775204 0.107080
vt 0.775204 0.892470
vt 0.750459 0.863825
vt 0.750462 0.131798
vt 0.224796 0.107080
vt 0.775204 0.107080
vt 0.750462 0.131798
vt 0.249538 0.131798
vt 0.224796 0.892470
vt 0.224796 0.107080
vt 0.249538 0.131798
vt 0.249541 0.863825
vt 0.750459 0.863825
vt 0.249541 0.863825
vt 0.249541 0.863825
vt 0.487140 0.834030
vt 0.512860 0.834030
vt 0.750459 0.863825
vt 0.750462 0.131798
vt 0.750459 0.863825
vt 0.750459 0.863825
vt 0.723041 0.625351
vt 0.723041 0.159193
vt 0.249538 0.131798
vt 0.750462 0.131798
vt 0.723041 0.159193
vt 0.276959 0.159193
vt 0.249541 0.863825
vt 0.249538 0.131798
vt 0.276959 0.159193
vt 0.276959 0.625351
vt 0.249541 0.863825
vt 0.807611 0.924996
vt 0.192389 0.924996
vt 0.224796 0.892470
vt 0.775204 0.892470
vt 0.807611 0.074703
vt 0.807611 0.924996
vt 0.775204 0.892470
vt 0.775204 0.107080
vt 0.192389 0.074703
vt 0.807611 0.074703
vt 0.775204 0.107080
vt 0.224796 0.107080
vt 0.192389 0.924996
vt 0.192389 0.074703
vt 0.224796 0.107080
vt 0.224796 0.892470
vt 0.840018 0.957523
vt 0.159982 0.957523
vt 0.192389 0.924996
vt 0.807611 0.924996
vt 0.840018 0.042327
vt 0.840018 0.957523
vt 0.807611 0.924996
vt 0.807611 0.074703
vt 0.159982 0.042327
vt 0.840018 0.042327
vt 0.807611 0.074703
vt 0.192389 0.074703
vt 0.159982 0.957523
vt 0.159982 0.042327
vt 0.192389 0.074703
vt 0.192389 0.924996
vt 0.276959 0.625351
vt 0.287083 0.664130
vt 0.287083 0.664130
vt 0.276959 0.625351
vt 0.712916 0.664130
vt 0.698594 0.707537
vt 0.698594 0.707537
vt 0.712916 0.664130
vt 0.301405 0.707537
vt 0.323609 0.748329
vt 0.323609 0.748329
vt 0.301405 0.707537
vt 0.323609 0.748329
vt 0.370409 0.793813
vt 0.370409 0.793813
vt 0.323609 0.748329
vt 0.370409 0.793813
vt 0.419072 0.822404
vt 0.419072 0.822404
vt 0.370409 0.793813
vt 0.580927 0.822404
vt 0.512860 0.834030
vt 0.512860 0.834030
vt 0.580927 0.822404
vt 0.512860 0.834030
vt 0.580927 0.822404
vt 0.580927 0.822404
vt 0.512860 0.834030
vt 0.580927 0.822404
vt 0.629591 0.793813
vt 0.629591 0.793813
vt 0.580927 0.822404
vt 0.629591 0.793813
vt 0.676391 0.748329
vt 0.676391 0.748329
vt 0.629591 0.793813
vt 0.676391 0.748329
vt 0.698594 0.707537
vt 0.698594 0.707537
vt 0.676391 0.748329
vt 0.301405 0.707537
vt 0.287083 0.664130
vt 0.287083 0.664130
vt 0.301405 0.707537
vt 0.712916 0.664130
vt 0.723041 0.625351
vt 0.723041 0.625351
vt 0.712916 0.664130
vt 0.750459 0.863825
vt 0.512860 0.834030
vt 0.580927 0.822404
vt 0.750459 0.863825
vt 0.580927 0.822404
vt 0.629591 0.793813
vt 0.750459 0.863825
vt 0.629591 0.793813
vt 0.676391 0.748329
vt 0.750459 0.863825
vt 0.676391 0.748329
vt 0.698594 0.707537
vt 0.750459 0.863825
vt 0.698594 0.707537
vt 0.712916 0.664130
vt 0.750459 0.863825
vt 0.712916 0.664130
vt 0.723041 0.625351
vt 0.249541 0.863825
vt 0.276959 0.625351
vt 0.287083 0.664130
vt 0.249541 0.863825
vt 0.287083 0.664130
vt 0.301405 0.707537
vt 0.249541 0.863825
vt 0.301405 0.707537
vt 0.323609 0.748329
vt 0.249541 0.863825
vt 0.323609 0.748329
vt 0.370409 0.793813
vt 0.249541 0.863825
vt 0.370409 0.793813
vt 0.419072 0.822404
vt 0.249541 0.863825
vt 0.419072 0.822404
vt 0.487140 0.834030
vn -0.796172 0.605070 0.000000
vn 0.796172 0.605070 0.000000
vn 0.796172 0.605070 0.000000
vn -0.796172 0.605070 0.000000
vn 0.000000 0.000000 -1.000000
vn 0.000000 0.000000 -1.000000
vn 0.000000 0.000000 -1.000000
vn 0.000000 0.000000 -1.000000
vn -0.796172 -0.605070 0.000000
vn 0.796172 -0.605070 0.000000
vn 0.796172 -0.605070 0.000000
vn -0.796172 -0.605070 0.000000
vn -0.335395 -0.251921 0.907770
vn 0.335395 -0.251921 0.907770
vn 0.264203 -0.198697 0.943778
vn -0.264202 -0.198697 0.943778
vn 0.334223 0.252162 0.908135
vn 0.263968 0.198181 0.943952
vn -0.334223 0.252162 0.908135
vn -0.263968 0.198181 0.943952
vn 0.722493 0.691378 0.000000
vn -0.722493 0.691378 0.000000
vn -0.722493 0.691378 0.000000
vn 0.722493 0.691378 0.000000
vn -0.999799 -0.020047 0.000000
vn -0.999799 -0.020047 0.000000
vn -0.123025 -0.992404 0.000000
vn -0.123025 -0.992404 0.000000
vn 0.123025 -0.992404 0.000000
vn 0.123025 -0.992404 0.000000
vn 0.999799 -0.020047 0.000000
vn 0.999799 -0.020047 0.000000
vn -0.154028 -0.127039 0.979865
vn 0.154028 -0.127039 0.979865
vn 0.171342 -0.111808 0.978847
vn -0.171342 -0.111808 0.978847
vn -0.177366 0.122749 0.976460
vn -0.177259 0.122859 0.976466
vn 0.177367 0.122749 0.976460
vn 0.177259 0.122859 0.976466
vn -0.000000 0.000000 1.000000
vn -0.000000 0.000000 1.000000
vn -0.000000 0.000000 1.000000
vn -0.000000 0.000000 1.000000
vn -0.000000 0.000000 1.000000
vn -0.000000 0.000000 1.000000
vn -0.000000 0.000000 1.000000
vn -0.000000 0.000000 1.000000
vn -0.000000 0.000000 1.000000
vn -0.000000 0.000000 1.000000
vn -0.000000 0.000000 1.000000
vn -0.000000 0.000000 1.000000
vn -0.094584 -0.067642 0.993216
vn 0.094584 -0.067642 0.993216
vn 0.342339 -0.243627 0.907441
vn -0.342340 -0.243627 0.907441
vn -0.095005 0.067642 0.993176
vn -0.342647 0.244264 0.907154
vn 0.095005 0.067642 0.993176
vn 0.342647 0.244264 0.907154
vn -0.958494 -0.285113 0.000000
vn -0.958494 -0.285113 0.000000
vn -0.917399 -0.397970 0.000000
vn -0.917399 -0.397970 0.000000
vn -0.780946 -0.624598 0.000000
vn -0.780946 -0.624598 0.000000
vn -0.613042 -0.790050 0.000000
vn -0.613042 -0.790050 0.000000
vn -0.325742 -0.945459 0.000000
vn -0.325742 -0.945459 0.000000
vn 0.325742 -0.945459 0.000000
vn 0.325742 -0.945459 0.000000
vn 0.613042 -0.790050 0.000000
vn 0.613042 -0.790050 0.000000
vn 0.780946 -0.624598 0.000000
vn 0.780946 -0.624598 0.000000
vn 0.917399 -0.397970 0.000000
vn 0.917399 -0.397970 0.000000
vn 0.958494 -0.285113 0.000000
vn 0.958494 -0.285113 0.000000
vn 0.000000 0.000000 1.000000
vn 0.000000 0.000000 1.000000
vn 0.000000 0.000000 1.000000
vn 0.000000 0.000000 1.000000
vn 0.000000 0.000000 1.000000
vn 0.000000 0.000000 1.000000
vn 0.000000 0.000000 1.000000
vn 0.000000 0.000000 1.000000
vn 0.000000 0.000000 1.000000
vn 0.000000 0.000000 1.000000
s 1
g pCube2
usemtl mirror_frame_initialShadingGroup
f 3/1/1 4/2/2 6/3/3 5/4/4
s off
f 5/5/5 6/6/6 8/7/7 7/8/8
s 1
f 7/9/9 8/10/10 2/11/11 1/12/12
f 2/13/11 8/14/10 6/15/3 4/16/2
f 7/17/9 1/18/12 3/19/1 5/20/4
s 2
f 1/21/13 2/22/14 27/23/15 28/24/16
f 2/25/14 4/26/17 26/27/18 27/28/15
f 4/29/17 3/30/19 25/31/20 26/32/18
f 3/33/19 1/34/13 28/35/16 25/36/20
s 3
f 9/37/21 10/38/22 12/39/23 11/40/24
f 10/41/22 36/42/25 38/43/26 12/44/23
f 37/45/27 30/46/28 51/47/29 53/48/30
f 52/49/31 45/50/32 9/51/21 11/52/24
s 5
f 14/53/33 13/54/34 17/55/35 18/56/36
f 15/57/37 14/58/33 18/59/36 19/60/38
f 16/61/39 15/62/37 19/63/38 20/64/40
f 13/65/34 16/66/39 20/67/40 17/68/35
s 6
f 18/69/41 17/70/42 44/71/43 51/72/44 30/73/45 29/74/46
f 19/75/47 18/76/41 29/77/46 36/78/48 10/79/49
f 20/80/50 19/81/47 10/82/49 9/83/51
f 17/84/42 20/85/50 9/86/51 45/87/52 44/88/43
s 2
f 22/89/53 21/90/54 13/91/55 14/92/56
f 23/93/57 22/94/53 14/95/56 15/96/58
f 24/97/59 23/98/57 15/99/58 16/100/60
f 21/101/54 24/102/59 16/103/60 13/104/55
f 26/105/18 25/106/20 21/107/54 22/108/53
f 27/109/15 26/110/18 22/111/53 23/112/57
f 28/113/16 27/114/15 23/115/57 24/116/59
f 25/117/20 28/118/16 24/119/59 21/120/54
s 3
f 36/121/25 35/122/61 39/123/62 38/124/26
f 35/125/61 34/126/63 40/127/64 39/128/62
f 34/129/63 33/130/65 41/131/66 40/132/64
f 33/133/65 32/134/67 42/135/68 41/136/66
f 32/137/67 31/138/69 43/139/70 42/140/68
f 31/141/69 30/142/28 37/143/27 43/144/70
f 51/145/29 50/146/71 54/147/72 53/148/30
f 50/149/71 49/150/73 55/151/74 54/152/72
f 49/153/73 48/154/75 56/155/76 55/156/74
f 48/157/75 47/158/77 57/159/78 56/160/76
f 47/161/77 46/162/79 58/163/80 57/164/78
f 46/165/79 45/166/32 52/167/31 58/168/80
s 6
f 29/169/46 30/170/45 31/171/81
f 29/172/46 31/173/81 32/174/82
f 29/175/46 32/176/82 33/177/83
f 29/178/46 33/179/83 34/180/84
f 29/181/46 34/182/84 35/183/85
f 29/184/46 35/185/85 36/186/48
f 44/187/43 45/188/52 46/189/86
f 44/190/43 46/191/86 47/192/87
f 44/193/43 47/194/87 48/195/88
f 44/196/43 48/197/88 49/198/89
f 44/199/43 49/200/89 50/201/90
f 44/202/43 50/203/90 51/204/44
